<?xml version="1.0" encoding="iso-8859-1"?>
<!-- Uploaded to: SVG Repo, www.svgrepo.com, Generator: SVG Repo Mixer Tools -->
<svg fill="#000000" height="800px" width="800px" version="1.1" id="Layer_1" xmlns="http://www.w3.org/2000/svg" xmlns:xlink="http://www.w3.org/1999/xlink" 
	 viewBox="0 0 512 512" xml:space="preserve">
<g>
	<g>
		<path d="M129.575,338.522l-42.366,15.421c-17.776,6.47-37.5-2.728-43.97-20.504c-6.47-17.774,2.728-37.498,20.502-43.97
			l16.004-5.825c-2.292-14.511-2.739-29.029-1.478-43.27l-28.606,10.412C10.558,265.02-9.677,308.415,4.556,347.518
			c14.234,39.105,57.627,59.341,96.733,45.107l57.664-20.988C147.729,362.237,137.789,351.13,129.575,338.522z"/>
	</g>
</g>
<g>
	<g>
		<path d="M507.444,164.484c-14.234-39.105-57.629-59.341-96.734-45.107l-28.605,10.411c10.12,10.098,19.111,21.508,26.681,34.097
			l16.004-5.825c17.776-6.47,37.5,2.728,43.97,20.504c6.47,17.776-2.728,37.5-20.504,43.97l-42.366,15.419
			c1.811,14.938,1.337,29.836-1.219,44.252l57.664-20.988C501.442,246.984,521.678,203.589,507.444,164.484z"/>
	</g>
</g>
<g>
	<g>
		<path d="M397.84,204.375c-28.512-78.337-115.13-118.726-193.465-90.215c-78.335,28.512-118.726,115.13-90.214,193.465
			c4.036,11.089,9.238,21.416,15.415,30.897l276.315-100.571C404.529,226.719,401.876,215.464,397.84,204.375z"/>
	</g>
</g>
<g>
	<g>
		<path d="M158.953,371.638c39.956,33.468,96.173,45.312,148.672,26.202s87.952-64.315,97.047-115.637L158.953,371.638z"/>
	</g>
</g>
</svg>